<svg width="32" height="32" viewBox="0 0 32 32" fill="none" xmlns="http://www.w3.org/2000/svg">
<path d="M18.6666 3.02612V8.53351C18.6666 9.28025 18.6666 9.65361 18.8119 9.93883C18.9397 10.1897 19.1437 10.3937 19.3946 10.5215C19.6798 10.6668 20.0532 10.6668 20.7999 10.6668H26.3073M21.3333 24.6667L19.3333 22.6667M18.6666 2.66675H11.7333C9.49304 2.66675 8.37294 2.66675 7.51729 3.10272C6.76464 3.48622 6.15272 4.09814 5.76923 4.85079C5.33325 5.70643 5.33325 6.82654 5.33325 9.06675V22.9334C5.33325 25.1736 5.33325 26.2937 5.76923 27.1494C6.15272 27.902 6.76464 28.5139 7.51729 28.8974C8.37294 29.3334 9.49304 29.3334 11.7333 29.3334H20.2666C22.5068 29.3334 23.6269 29.3334 24.4825 28.8974C25.2352 28.5139 25.8471 27.902 26.2306 27.1494C26.6666 26.2937 26.6666 25.1736 26.6666 22.9334V10.6667L18.6666 2.66675ZM20.6666 19.3334C20.6666 21.9107 18.5772 24.0001 15.9999 24.0001C13.4226 24.0001 11.3333 21.9107 11.3333 19.3334C11.3333 16.7561 13.4226 14.6667 15.9999 14.6667C18.5772 14.6667 20.6666 16.7561 20.6666 19.3334Z" stroke="white" stroke-width="2.30769" stroke-linecap="round" stroke-linejoin="round"/>
</svg>
